<mxfile host="app.diagrams.net" modified="2023-02-15T02:51:47.788Z" agent="5.0 (Macintosh; Intel Mac OS X 10_15_7) AppleWebKit/605.1.15 (KHTML, like Gecko) Version/16.2 Safari/605.1.15" etag="YwYrrvVaqmTN8fzf0FYW" version="20.8.20" type="github">
  <diagram name="Page-1" id="6jWcpIqCu5GllpFyYO_P">
    <mxGraphModel dx="2074" dy="1187" grid="1" gridSize="10" guides="1" tooltips="1" connect="1" arrows="1" fold="1" page="1" pageScale="1" pageWidth="800" pageHeight="600" math="0" shadow="0">
      <root>
        <mxCell id="0" />
        <mxCell id="1" parent="0" />
        <mxCell id="3ebPB1JYwUErB06uRLUA-3" value="" style="endArrow=none;dashed=1;html=1;rounded=0;strokeWidth=4;" edge="1" parent="1">
          <mxGeometry width="50" height="50" relative="1" as="geometry">
            <mxPoint x="160" y="510" as="sourcePoint" />
            <mxPoint x="160" y="70" as="targetPoint" />
          </mxGeometry>
        </mxCell>
        <mxCell id="3ebPB1JYwUErB06uRLUA-4" value="" style="endArrow=none;dashed=1;html=1;rounded=0;strokeWidth=4;" edge="1" parent="1">
          <mxGeometry width="50" height="50" relative="1" as="geometry">
            <mxPoint x="400" y="510" as="sourcePoint" />
            <mxPoint x="400" y="70" as="targetPoint" />
          </mxGeometry>
        </mxCell>
        <mxCell id="3ebPB1JYwUErB06uRLUA-6" value="" style="endArrow=none;html=1;rounded=0;strokeWidth=4;startArrow=none;" edge="1" parent="1" source="3ebPB1JYwUErB06uRLUA-7">
          <mxGeometry width="50" height="50" relative="1" as="geometry">
            <mxPoint x="120" y="470" as="sourcePoint" />
            <mxPoint x="200" y="470" as="targetPoint" />
          </mxGeometry>
        </mxCell>
        <mxCell id="3ebPB1JYwUErB06uRLUA-8" value="" style="endArrow=none;html=1;rounded=0;strokeWidth=4;fillColor=#0050ef;strokeColor=#001DBC;" edge="1" parent="1" target="3ebPB1JYwUErB06uRLUA-7">
          <mxGeometry width="50" height="50" relative="1" as="geometry">
            <mxPoint x="120" y="470" as="sourcePoint" />
            <mxPoint x="200" y="470" as="targetPoint" />
          </mxGeometry>
        </mxCell>
        <mxCell id="3ebPB1JYwUErB06uRLUA-7" value="" style="ellipse;whiteSpace=wrap;html=1;aspect=fixed;fillColor=#0050ef;fontColor=#ffffff;strokeColor=#001DBC;strokeWidth=0;" vertex="1" parent="1">
          <mxGeometry x="190" y="460" width="20" height="20" as="geometry" />
        </mxCell>
        <mxCell id="3ebPB1JYwUErB06uRLUA-11" value="" style="endArrow=none;html=1;rounded=0;strokeWidth=4;fillColor=#0050ef;strokeColor=#001DBC;" edge="1" parent="1">
          <mxGeometry width="50" height="50" relative="1" as="geometry">
            <mxPoint x="120" y="470" as="sourcePoint" />
            <mxPoint x="120" y="390" as="targetPoint" />
          </mxGeometry>
        </mxCell>
        <mxCell id="3ebPB1JYwUErB06uRLUA-13" value="" style="endArrow=none;html=1;rounded=0;strokeWidth=4;fillColor=#fa6800;strokeColor=#FA6800;startArrow=none;" edge="1" parent="1" source="3ebPB1JYwUErB06uRLUA-14">
          <mxGeometry width="50" height="50" relative="1" as="geometry">
            <mxPoint x="120" y="390" as="sourcePoint" />
            <mxPoint x="120" y="310" as="targetPoint" />
          </mxGeometry>
        </mxCell>
        <mxCell id="3ebPB1JYwUErB06uRLUA-15" value="" style="endArrow=none;html=1;rounded=0;strokeWidth=4;fillColor=#fa6800;strokeColor=#C73500;" edge="1" parent="1" target="3ebPB1JYwUErB06uRLUA-14">
          <mxGeometry width="50" height="50" relative="1" as="geometry">
            <mxPoint x="120" y="390" as="sourcePoint" />
            <mxPoint x="120" y="310" as="targetPoint" />
          </mxGeometry>
        </mxCell>
        <mxCell id="3ebPB1JYwUErB06uRLUA-14" value="" style="ellipse;whiteSpace=wrap;html=1;aspect=fixed;fillColor=#FA6800;fontColor=#000000;strokeColor=#C73500;strokeWidth=0;" vertex="1" parent="1">
          <mxGeometry x="110" y="380" width="20" height="20" as="geometry" />
        </mxCell>
        <mxCell id="3ebPB1JYwUErB06uRLUA-16" value="" style="endArrow=none;html=1;rounded=0;strokeWidth=4;fillColor=#fa6800;strokeColor=#FA6800;startArrow=none;" edge="1" parent="1">
          <mxGeometry width="50" height="50" relative="1" as="geometry">
            <mxPoint x="230" y="310" as="sourcePoint" />
            <mxPoint x="120" y="310" as="targetPoint" />
          </mxGeometry>
        </mxCell>
        <mxCell id="3ebPB1JYwUErB06uRLUA-17" value="" style="endArrow=none;html=1;rounded=0;strokeWidth=4;fillColor=#fa6800;strokeColor=#FA6800;startArrow=none;" edge="1" parent="1">
          <mxGeometry width="50" height="50" relative="1" as="geometry">
            <mxPoint x="120" y="390" as="sourcePoint" />
            <mxPoint x="40" y="389.5" as="targetPoint" />
          </mxGeometry>
        </mxCell>
        <mxCell id="3ebPB1JYwUErB06uRLUA-19" value="" style="endArrow=none;html=1;rounded=0;strokeWidth=4;fillColor=#fa6800;strokeColor=#FA6800;startArrow=none;" edge="1" parent="1">
          <mxGeometry width="50" height="50" relative="1" as="geometry">
            <mxPoint x="230" y="310" as="sourcePoint" />
            <mxPoint x="230" y="310" as="targetPoint" />
          </mxGeometry>
        </mxCell>
        <mxCell id="3ebPB1JYwUErB06uRLUA-23" value="" style="endArrow=none;html=1;rounded=0;strokeWidth=4;fillColor=#fa6800;strokeColor=#FA6800;startArrow=none;" edge="1" parent="1">
          <mxGeometry width="50" height="50" relative="1" as="geometry">
            <mxPoint x="230" y="310" as="sourcePoint" />
            <mxPoint x="230" y="240" as="targetPoint" />
          </mxGeometry>
        </mxCell>
        <mxCell id="3ebPB1JYwUErB06uRLUA-24" value="" style="endArrow=none;html=1;rounded=0;strokeWidth=4;fillColor=#0050ef;strokeColor=#001DBC;startArrow=none;" edge="1" parent="1" source="3ebPB1JYwUErB06uRLUA-42">
          <mxGeometry width="50" height="50" relative="1" as="geometry">
            <mxPoint x="230" y="390" as="sourcePoint" />
            <mxPoint x="230" y="310" as="targetPoint" />
          </mxGeometry>
        </mxCell>
        <mxCell id="3ebPB1JYwUErB06uRLUA-25" value="" style="endArrow=none;html=1;rounded=0;strokeWidth=4;fillColor=#0050ef;strokeColor=#001DBC;" edge="1" parent="1">
          <mxGeometry width="50" height="50" relative="1" as="geometry">
            <mxPoint x="230" y="389.5" as="sourcePoint" />
            <mxPoint x="270" y="390" as="targetPoint" />
          </mxGeometry>
        </mxCell>
        <mxCell id="3ebPB1JYwUErB06uRLUA-26" value="" style="endArrow=none;html=1;rounded=0;strokeWidth=4;fillColor=#0050ef;strokeColor=#00994D;" edge="1" parent="1">
          <mxGeometry width="50" height="50" relative="1" as="geometry">
            <mxPoint x="270" y="390" as="sourcePoint" />
            <mxPoint x="270" y="350" as="targetPoint" />
          </mxGeometry>
        </mxCell>
        <mxCell id="3ebPB1JYwUErB06uRLUA-27" value="" style="endArrow=none;html=1;rounded=0;strokeWidth=4;fillColor=#0050ef;strokeColor=#001DBC;startArrow=none;" edge="1" parent="1" source="3ebPB1JYwUErB06uRLUA-40">
          <mxGeometry width="50" height="50" relative="1" as="geometry">
            <mxPoint x="270" y="430" as="sourcePoint" />
            <mxPoint x="270" y="390" as="targetPoint" />
            <Array as="points" />
          </mxGeometry>
        </mxCell>
        <mxCell id="3ebPB1JYwUErB06uRLUA-29" value="" style="endArrow=none;html=1;rounded=0;strokeWidth=4;fillColor=#0050ef;strokeColor=#001DBC;startArrow=none;" edge="1" parent="1" source="3ebPB1JYwUErB06uRLUA-38">
          <mxGeometry width="50" height="50" relative="1" as="geometry">
            <mxPoint x="270" y="430" as="sourcePoint" />
            <mxPoint x="370" y="430" as="targetPoint" />
          </mxGeometry>
        </mxCell>
        <mxCell id="3ebPB1JYwUErB06uRLUA-30" value="" style="endArrow=none;html=1;rounded=0;strokeWidth=4;fillColor=#0050ef;strokeColor=#00994D;startArrow=none;" edge="1" parent="1" source="3ebPB1JYwUErB06uRLUA-49">
          <mxGeometry width="50" height="50" relative="1" as="geometry">
            <mxPoint x="270" y="350" as="sourcePoint" />
            <mxPoint x="320" y="350" as="targetPoint" />
          </mxGeometry>
        </mxCell>
        <mxCell id="3ebPB1JYwUErB06uRLUA-32" value="" style="endArrow=none;html=1;rounded=0;strokeWidth=4;fillColor=#fa6800;strokeColor=#FA6800;startArrow=none;" edge="1" parent="1">
          <mxGeometry width="50" height="50" relative="1" as="geometry">
            <mxPoint x="340" y="240" as="sourcePoint" />
            <mxPoint x="230" y="240" as="targetPoint" />
          </mxGeometry>
        </mxCell>
        <mxCell id="3ebPB1JYwUErB06uRLUA-33" value="" style="endArrow=none;html=1;rounded=0;strokeWidth=4;fillColor=#fa6800;strokeColor=#FA6800;startArrow=none;" edge="1" parent="1">
          <mxGeometry width="50" height="50" relative="1" as="geometry">
            <mxPoint x="340" y="240" as="sourcePoint" />
            <mxPoint x="340" y="170" as="targetPoint" />
          </mxGeometry>
        </mxCell>
        <mxCell id="3ebPB1JYwUErB06uRLUA-34" value="" style="endArrow=none;html=1;rounded=0;strokeWidth=4;fillColor=#fa6800;strokeColor=#FA6800;startArrow=none;" edge="1" parent="1" source="3ebPB1JYwUErB06uRLUA-44">
          <mxGeometry width="50" height="50" relative="1" as="geometry">
            <mxPoint x="340" y="300" as="sourcePoint" />
            <mxPoint x="340" y="230" as="targetPoint" />
          </mxGeometry>
        </mxCell>
        <mxCell id="3ebPB1JYwUErB06uRLUA-36" value="" style="endArrow=none;html=1;rounded=0;strokeWidth=4;fillColor=#fa6800;strokeColor=#FA6800;startArrow=none;" edge="1" parent="1">
          <mxGeometry width="50" height="50" relative="1" as="geometry">
            <mxPoint x="450" y="300" as="sourcePoint" />
            <mxPoint x="340" y="300" as="targetPoint" />
          </mxGeometry>
        </mxCell>
        <mxCell id="3ebPB1JYwUErB06uRLUA-37" value="" style="endArrow=none;html=1;rounded=0;strokeWidth=4;fillColor=#fa6800;strokeColor=#FA6800;startArrow=none;" edge="1" parent="1" source="3ebPB1JYwUErB06uRLUA-46">
          <mxGeometry width="50" height="50" relative="1" as="geometry">
            <mxPoint x="370" y="170" as="sourcePoint" />
            <mxPoint x="340" y="170" as="targetPoint" />
          </mxGeometry>
        </mxCell>
        <mxCell id="3ebPB1JYwUErB06uRLUA-39" value="" style="endArrow=none;html=1;rounded=0;strokeWidth=4;fillColor=#0050ef;strokeColor=#001DBC;" edge="1" parent="1" target="3ebPB1JYwUErB06uRLUA-38">
          <mxGeometry width="50" height="50" relative="1" as="geometry">
            <mxPoint x="270" y="430" as="sourcePoint" />
            <mxPoint x="370" y="430" as="targetPoint" />
          </mxGeometry>
        </mxCell>
        <mxCell id="3ebPB1JYwUErB06uRLUA-38" value="" style="ellipse;whiteSpace=wrap;html=1;aspect=fixed;fillColor=#0050EF;fontColor=#ffffff;strokeColor=#001DBC;strokeWidth=0;" vertex="1" parent="1">
          <mxGeometry x="360" y="420" width="20" height="20" as="geometry" />
        </mxCell>
        <mxCell id="3ebPB1JYwUErB06uRLUA-41" value="" style="endArrow=none;html=1;rounded=0;strokeWidth=4;fillColor=#0050ef;strokeColor=#001DBC;" edge="1" parent="1" target="3ebPB1JYwUErB06uRLUA-40">
          <mxGeometry width="50" height="50" relative="1" as="geometry">
            <mxPoint x="270" y="430" as="sourcePoint" />
            <mxPoint x="270" y="390" as="targetPoint" />
            <Array as="points">
              <mxPoint x="270" y="430" />
            </Array>
          </mxGeometry>
        </mxCell>
        <mxCell id="3ebPB1JYwUErB06uRLUA-40" value="" style="ellipse;whiteSpace=wrap;html=1;aspect=fixed;fillColor=#0050ef;fontColor=#ffffff;strokeColor=#001DBC;strokeWidth=0;" vertex="1" parent="1">
          <mxGeometry x="260" y="380" width="20" height="20" as="geometry" />
        </mxCell>
        <mxCell id="3ebPB1JYwUErB06uRLUA-43" value="" style="endArrow=none;html=1;rounded=0;strokeWidth=4;fillColor=#0050ef;strokeColor=#001DBC;" edge="1" parent="1" target="3ebPB1JYwUErB06uRLUA-42">
          <mxGeometry width="50" height="50" relative="1" as="geometry">
            <mxPoint x="230" y="390" as="sourcePoint" />
            <mxPoint x="230" y="310" as="targetPoint" />
          </mxGeometry>
        </mxCell>
        <mxCell id="3ebPB1JYwUErB06uRLUA-42" value="" style="ellipse;whiteSpace=wrap;html=1;aspect=fixed;fillColor=#FA6800;fontColor=#000000;strokeColor=#C73500;strokeWidth=0;" vertex="1" parent="1">
          <mxGeometry x="220" y="300" width="20" height="20" as="geometry" />
        </mxCell>
        <mxCell id="3ebPB1JYwUErB06uRLUA-45" value="" style="endArrow=none;html=1;rounded=0;strokeWidth=4;fillColor=#fa6800;strokeColor=#FA6800;startArrow=none;" edge="1" parent="1" target="3ebPB1JYwUErB06uRLUA-44">
          <mxGeometry width="50" height="50" relative="1" as="geometry">
            <mxPoint x="340" y="300" as="sourcePoint" />
            <mxPoint x="340" y="230" as="targetPoint" />
          </mxGeometry>
        </mxCell>
        <mxCell id="3ebPB1JYwUErB06uRLUA-44" value="" style="ellipse;whiteSpace=wrap;html=1;aspect=fixed;fillColor=#FA6800;fontColor=#000000;strokeColor=#C73500;strokeWidth=0;" vertex="1" parent="1">
          <mxGeometry x="330" y="230" width="20" height="20" as="geometry" />
        </mxCell>
        <mxCell id="3ebPB1JYwUErB06uRLUA-47" value="" style="endArrow=none;html=1;rounded=0;strokeWidth=4;fillColor=#fa6800;strokeColor=#FA6800;startArrow=none;" edge="1" parent="1" target="3ebPB1JYwUErB06uRLUA-46">
          <mxGeometry width="50" height="50" relative="1" as="geometry">
            <mxPoint x="370" y="170" as="sourcePoint" />
            <mxPoint x="340" y="170" as="targetPoint" />
          </mxGeometry>
        </mxCell>
        <mxCell id="3ebPB1JYwUErB06uRLUA-46" value="" style="ellipse;whiteSpace=wrap;html=1;aspect=fixed;fillColor=#FA6800;fontColor=#000000;strokeColor=#C73500;strokeWidth=0;" vertex="1" parent="1">
          <mxGeometry x="360" y="160" width="20" height="20" as="geometry" />
        </mxCell>
        <mxCell id="3ebPB1JYwUErB06uRLUA-48" value="" style="ellipse;whiteSpace=wrap;html=1;aspect=fixed;fillColor=#FA6800;fontColor=#000000;strokeColor=#C73500;strokeWidth=0;" vertex="1" parent="1">
          <mxGeometry x="440" y="290" width="20" height="20" as="geometry" />
        </mxCell>
        <mxCell id="3ebPB1JYwUErB06uRLUA-50" value="" style="endArrow=none;html=1;rounded=0;strokeWidth=4;fillColor=#0050ef;strokeColor=#00994D;" edge="1" parent="1" target="3ebPB1JYwUErB06uRLUA-49">
          <mxGeometry width="50" height="50" relative="1" as="geometry">
            <mxPoint x="270" y="350" as="sourcePoint" />
            <mxPoint x="320" y="350" as="targetPoint" />
          </mxGeometry>
        </mxCell>
        <mxCell id="3ebPB1JYwUErB06uRLUA-49" value="" style="ellipse;whiteSpace=wrap;html=1;aspect=fixed;fillColor=#00994D;fontColor=#000000;strokeColor=#C73500;strokeWidth=0;" vertex="1" parent="1">
          <mxGeometry x="310" y="340" width="20" height="20" as="geometry" />
        </mxCell>
        <mxCell id="3ebPB1JYwUErB06uRLUA-52" value="" style="endArrow=classic;html=1;rounded=0;strokeColor=#000000;strokeWidth=4;" edge="1" parent="1">
          <mxGeometry width="50" height="50" relative="1" as="geometry">
            <mxPoint x="40" y="510" as="sourcePoint" />
            <mxPoint x="520" y="510" as="targetPoint" />
          </mxGeometry>
        </mxCell>
        <mxCell id="3ebPB1JYwUErB06uRLUA-53" value="&lt;font style=&quot;font-size: 18px;&quot; face=&quot;Times New Roman&quot;&gt;EpiWeek X&lt;/font&gt;" style="text;html=1;align=center;verticalAlign=middle;resizable=0;points=[];autosize=1;strokeColor=none;fillColor=none;" vertex="1" parent="1">
          <mxGeometry x="240" y="520" width="110" height="30" as="geometry" />
        </mxCell>
        <mxCell id="3ebPB1JYwUErB06uRLUA-54" value="&lt;font style=&quot;font-size: 18px;&quot; face=&quot;Times New Roman&quot;&gt;EpiWeek X-1&lt;/font&gt;" style="text;html=1;align=center;verticalAlign=middle;resizable=0;points=[];autosize=1;strokeColor=none;fillColor=none;" vertex="1" parent="1">
          <mxGeometry x="40" y="520" width="120" height="30" as="geometry" />
        </mxCell>
        <mxCell id="3ebPB1JYwUErB06uRLUA-55" value="&lt;font style=&quot;font-size: 18px;&quot; face=&quot;Times New Roman&quot;&gt;EpiWeek X+1&lt;/font&gt;" style="text;html=1;align=center;verticalAlign=middle;resizable=0;points=[];autosize=1;strokeColor=none;fillColor=none;" vertex="1" parent="1">
          <mxGeometry x="400" y="520" width="130" height="30" as="geometry" />
        </mxCell>
        <mxCell id="3ebPB1JYwUErB06uRLUA-56" value="" style="endArrow=classic;html=1;rounded=0;strokeColor=#000000;strokeWidth=4;" edge="1" parent="1">
          <mxGeometry width="50" height="50" relative="1" as="geometry">
            <mxPoint x="40" y="70" as="sourcePoint" />
            <mxPoint x="520" y="70" as="targetPoint" />
          </mxGeometry>
        </mxCell>
        <mxCell id="3ebPB1JYwUErB06uRLUA-57" value="&lt;font style=&quot;font-size: 18px;&quot; face=&quot;Times New Roman&quot;&gt;EpiWeek X&lt;/font&gt;" style="text;html=1;align=center;verticalAlign=middle;resizable=0;points=[];autosize=1;strokeColor=none;fillColor=none;" vertex="1" parent="1">
          <mxGeometry x="240" y="40" width="110" height="30" as="geometry" />
        </mxCell>
        <mxCell id="3ebPB1JYwUErB06uRLUA-58" value="&lt;font style=&quot;font-size: 18px;&quot; face=&quot;Times New Roman&quot;&gt;EpiWeek X+1&lt;/font&gt;" style="text;html=1;align=center;verticalAlign=middle;resizable=0;points=[];autosize=1;strokeColor=none;fillColor=none;" vertex="1" parent="1">
          <mxGeometry x="400" y="40" width="130" height="30" as="geometry" />
        </mxCell>
        <mxCell id="3ebPB1JYwUErB06uRLUA-59" value="&lt;font style=&quot;font-size: 18px;&quot; face=&quot;Times New Roman&quot;&gt;EpiWeek X-1&lt;/font&gt;" style="text;html=1;align=center;verticalAlign=middle;resizable=0;points=[];autosize=1;strokeColor=none;fillColor=none;" vertex="1" parent="1">
          <mxGeometry x="40" y="40" width="120" height="30" as="geometry" />
        </mxCell>
        <mxCell id="3ebPB1JYwUErB06uRLUA-61" value="" style="ellipse;whiteSpace=wrap;html=1;aspect=fixed;fillColor=#0050EF;fontColor=#ffffff;strokeColor=#001DBC;strokeWidth=0;" vertex="1" parent="1">
          <mxGeometry x="550" y="140" width="20" height="20" as="geometry" />
        </mxCell>
        <mxCell id="3ebPB1JYwUErB06uRLUA-62" value="&lt;font color=&quot;#0050ef&quot;&gt;Houston&lt;/font&gt;" style="text;html=1;align=center;verticalAlign=middle;resizable=0;points=[];autosize=1;strokeColor=none;fillColor=none;fontSize=18;fontFamily=Times New Roman;" vertex="1" parent="1">
          <mxGeometry x="570" y="135" width="80" height="30" as="geometry" />
        </mxCell>
        <mxCell id="3ebPB1JYwUErB06uRLUA-63" value="" style="ellipse;whiteSpace=wrap;html=1;aspect=fixed;fillColor=#FA6800;fontColor=#000000;strokeColor=#C73500;strokeWidth=0;" vertex="1" parent="1">
          <mxGeometry x="550" y="180" width="20" height="20" as="geometry" />
        </mxCell>
        <mxCell id="3ebPB1JYwUErB06uRLUA-64" value="&lt;font color=&quot;#fa6800&quot;&gt;Austin&lt;/font&gt;" style="text;html=1;align=center;verticalAlign=middle;resizable=0;points=[];autosize=1;strokeColor=none;fillColor=none;fontSize=18;fontFamily=Times New Roman;" vertex="1" parent="1">
          <mxGeometry x="570" y="175" width="70" height="30" as="geometry" />
        </mxCell>
        <mxCell id="3ebPB1JYwUErB06uRLUA-65" value="" style="ellipse;whiteSpace=wrap;html=1;aspect=fixed;fillColor=#00994D;fontColor=#000000;strokeColor=#C73500;strokeWidth=0;" vertex="1" parent="1">
          <mxGeometry x="550" y="220" width="20" height="20" as="geometry" />
        </mxCell>
        <mxCell id="3ebPB1JYwUErB06uRLUA-66" value="&lt;font color=&quot;#00994d&quot;&gt;Dallas&lt;/font&gt;" style="text;html=1;align=center;verticalAlign=middle;resizable=0;points=[];autosize=1;strokeColor=none;fillColor=none;fontSize=18;fontFamily=Times New Roman;" vertex="1" parent="1">
          <mxGeometry x="570" y="215" width="70" height="30" as="geometry" />
        </mxCell>
        <mxCell id="3ebPB1JYwUErB06uRLUA-67" value="" style="shape=table;startSize=0;container=1;collapsible=0;childLayout=tableLayout;strokeColor=#000000;strokeWidth=2;fontFamily=Times New Roman;fontSize=18;fontColor=#00994D;fillColor=none;" vertex="1" parent="1">
          <mxGeometry x="550" y="290" width="200" height="170" as="geometry" />
        </mxCell>
        <mxCell id="3ebPB1JYwUErB06uRLUA-68" value="" style="shape=tableRow;horizontal=0;startSize=0;swimlaneHead=0;swimlaneBody=0;strokeColor=inherit;top=0;left=0;bottom=0;right=0;collapsible=0;dropTarget=0;fillColor=none;points=[[0,0.5],[1,0.5]];portConstraint=eastwest;strokeWidth=0;fontFamily=Times New Roman;fontSize=18;fontColor=#00994D;" vertex="1" parent="3ebPB1JYwUErB06uRLUA-67">
          <mxGeometry width="200" height="40" as="geometry" />
        </mxCell>
        <mxCell id="3ebPB1JYwUErB06uRLUA-69" value="Parent" style="shape=partialRectangle;html=1;whiteSpace=wrap;connectable=0;strokeColor=inherit;overflow=hidden;fillColor=none;top=0;left=0;bottom=0;right=0;pointerEvents=1;strokeWidth=1;fontFamily=Times New Roman;fontSize=18;fontColor=#000000;" vertex="1" parent="3ebPB1JYwUErB06uRLUA-68">
          <mxGeometry width="60" height="40" as="geometry">
            <mxRectangle width="60" height="40" as="alternateBounds" />
          </mxGeometry>
        </mxCell>
        <mxCell id="3ebPB1JYwUErB06uRLUA-70" value="&lt;font color=&quot;#000000&quot;&gt;Child&lt;/font&gt;" style="shape=partialRectangle;html=1;whiteSpace=wrap;connectable=0;strokeColor=inherit;overflow=hidden;fillColor=none;top=0;left=0;bottom=0;right=0;pointerEvents=1;strokeWidth=0;fontFamily=Times New Roman;fontSize=18;fontColor=#00994D;" vertex="1" parent="3ebPB1JYwUErB06uRLUA-68">
          <mxGeometry x="60" width="60" height="40" as="geometry">
            <mxRectangle width="60" height="40" as="alternateBounds" />
          </mxGeometry>
        </mxCell>
        <mxCell id="3ebPB1JYwUErB06uRLUA-71" value="&lt;font style=&quot;font-size: 14px;&quot; color=&quot;#000000&quot;&gt;Category&lt;/font&gt;" style="shape=partialRectangle;html=1;whiteSpace=wrap;connectable=0;strokeColor=inherit;overflow=hidden;fillColor=none;top=0;left=0;bottom=0;right=0;pointerEvents=1;strokeWidth=0;fontFamily=Times New Roman;fontSize=18;fontColor=#00994D;" vertex="1" parent="3ebPB1JYwUErB06uRLUA-68">
          <mxGeometry x="120" width="80" height="40" as="geometry">
            <mxRectangle width="80" height="40" as="alternateBounds" />
          </mxGeometry>
        </mxCell>
        <mxCell id="3ebPB1JYwUErB06uRLUA-72" value="" style="shape=tableRow;horizontal=0;startSize=0;swimlaneHead=0;swimlaneBody=0;strokeColor=inherit;top=0;left=0;bottom=0;right=0;collapsible=0;dropTarget=0;fillColor=none;points=[[0,0.5],[1,0.5]];portConstraint=eastwest;strokeWidth=0;fontFamily=Times New Roman;fontSize=18;fontColor=#00994D;" vertex="1" parent="3ebPB1JYwUErB06uRLUA-67">
          <mxGeometry y="40" width="200" height="40" as="geometry" />
        </mxCell>
        <mxCell id="3ebPB1JYwUErB06uRLUA-73" value="&lt;font color=&quot;#0050ef&quot; style=&quot;font-size: 14px;&quot;&gt;Houston&lt;/font&gt;" style="shape=partialRectangle;html=1;whiteSpace=wrap;connectable=0;strokeColor=inherit;overflow=hidden;fillColor=none;top=0;left=0;bottom=0;right=0;pointerEvents=1;strokeWidth=0;fontFamily=Times New Roman;fontSize=18;fontColor=#00994D;" vertex="1" parent="3ebPB1JYwUErB06uRLUA-72">
          <mxGeometry width="60" height="40" as="geometry">
            <mxRectangle width="60" height="40" as="alternateBounds" />
          </mxGeometry>
        </mxCell>
        <mxCell id="3ebPB1JYwUErB06uRLUA-74" value="&lt;font style=&quot;font-size: 14px;&quot; color=&quot;#000000&quot;&gt;Other&lt;/font&gt;" style="shape=partialRectangle;html=1;whiteSpace=wrap;connectable=0;strokeColor=inherit;overflow=hidden;fillColor=none;top=0;left=0;bottom=0;right=0;pointerEvents=1;strokeWidth=0;fontFamily=Times New Roman;fontSize=18;fontColor=#00994D;" vertex="1" parent="3ebPB1JYwUErB06uRLUA-72">
          <mxGeometry x="60" width="60" height="40" as="geometry">
            <mxRectangle width="60" height="40" as="alternateBounds" />
          </mxGeometry>
        </mxCell>
        <mxCell id="3ebPB1JYwUErB06uRLUA-75" value="&lt;font style=&quot;font-size: 14px;&quot; color=&quot;#ff0000&quot;&gt;Export&lt;/font&gt;" style="shape=partialRectangle;html=1;whiteSpace=wrap;connectable=0;strokeColor=inherit;overflow=hidden;fillColor=none;top=0;left=0;bottom=0;right=0;pointerEvents=1;strokeWidth=0;fontFamily=Times New Roman;fontSize=18;fontColor=#00994D;" vertex="1" parent="3ebPB1JYwUErB06uRLUA-72">
          <mxGeometry x="120" width="80" height="40" as="geometry">
            <mxRectangle width="80" height="40" as="alternateBounds" />
          </mxGeometry>
        </mxCell>
        <mxCell id="3ebPB1JYwUErB06uRLUA-76" value="" style="shape=tableRow;horizontal=0;startSize=0;swimlaneHead=0;swimlaneBody=0;strokeColor=inherit;top=0;left=0;bottom=0;right=0;collapsible=0;dropTarget=0;fillColor=none;points=[[0,0.5],[1,0.5]];portConstraint=eastwest;strokeWidth=0;fontFamily=Times New Roman;fontSize=18;fontColor=#00994D;" vertex="1" parent="3ebPB1JYwUErB06uRLUA-67">
          <mxGeometry y="80" width="200" height="40" as="geometry" />
        </mxCell>
        <mxCell id="3ebPB1JYwUErB06uRLUA-77" value="&lt;font style=&quot;font-size: 14px;&quot; color=&quot;#000000&quot;&gt;Other&lt;/font&gt;" style="shape=partialRectangle;html=1;whiteSpace=wrap;connectable=0;strokeColor=inherit;overflow=hidden;fillColor=none;top=0;left=0;bottom=0;right=0;pointerEvents=1;strokeWidth=0;fontFamily=Times New Roman;fontSize=18;fontColor=#00994D;" vertex="1" parent="3ebPB1JYwUErB06uRLUA-76">
          <mxGeometry width="60" height="40" as="geometry">
            <mxRectangle width="60" height="40" as="alternateBounds" />
          </mxGeometry>
        </mxCell>
        <mxCell id="3ebPB1JYwUErB06uRLUA-78" value="&lt;font color=&quot;#0050ef&quot; style=&quot;font-size: 14px;&quot;&gt;Houston&lt;/font&gt;" style="shape=partialRectangle;html=1;whiteSpace=wrap;connectable=0;strokeColor=inherit;overflow=hidden;fillColor=none;top=0;left=0;bottom=0;right=0;pointerEvents=1;strokeWidth=0;fontFamily=Times New Roman;fontSize=18;fontColor=#00994D;" vertex="1" parent="3ebPB1JYwUErB06uRLUA-76">
          <mxGeometry x="60" width="60" height="40" as="geometry">
            <mxRectangle width="60" height="40" as="alternateBounds" />
          </mxGeometry>
        </mxCell>
        <mxCell id="3ebPB1JYwUErB06uRLUA-79" value="&lt;font style=&quot;font-size: 14px;&quot; color=&quot;#ff0000&quot;&gt;Import&lt;/font&gt;" style="shape=partialRectangle;html=1;whiteSpace=wrap;connectable=0;strokeColor=inherit;overflow=hidden;fillColor=none;top=0;left=0;bottom=0;right=0;pointerEvents=1;strokeWidth=0;fontFamily=Times New Roman;fontSize=18;fontColor=#00994D;" vertex="1" parent="3ebPB1JYwUErB06uRLUA-76">
          <mxGeometry x="120" width="80" height="40" as="geometry">
            <mxRectangle width="80" height="40" as="alternateBounds" />
          </mxGeometry>
        </mxCell>
        <mxCell id="3ebPB1JYwUErB06uRLUA-80" value="" style="shape=tableRow;horizontal=0;startSize=0;swimlaneHead=0;swimlaneBody=0;strokeColor=inherit;top=0;left=0;bottom=0;right=0;collapsible=0;dropTarget=0;fillColor=none;points=[[0,0.5],[1,0.5]];portConstraint=eastwest;strokeWidth=0;fontFamily=Times New Roman;fontSize=18;fontColor=#00994D;" vertex="1" parent="3ebPB1JYwUErB06uRLUA-67">
          <mxGeometry y="120" width="200" height="50" as="geometry" />
        </mxCell>
        <mxCell id="3ebPB1JYwUErB06uRLUA-81" value="&lt;font color=&quot;#0050ef&quot; style=&quot;font-size: 14px;&quot;&gt;Houston&lt;/font&gt;" style="shape=partialRectangle;html=1;whiteSpace=wrap;connectable=0;strokeColor=inherit;overflow=hidden;fillColor=none;top=0;left=0;bottom=0;right=0;pointerEvents=1;strokeWidth=0;fontFamily=Times New Roman;fontSize=18;fontColor=#00994D;" vertex="1" parent="3ebPB1JYwUErB06uRLUA-80">
          <mxGeometry width="60" height="50" as="geometry">
            <mxRectangle width="60" height="50" as="alternateBounds" />
          </mxGeometry>
        </mxCell>
        <mxCell id="3ebPB1JYwUErB06uRLUA-82" value="&lt;font style=&quot;font-size: 14px;&quot; color=&quot;#0050ef&quot;&gt;Houston&lt;/font&gt;" style="shape=partialRectangle;html=1;whiteSpace=wrap;connectable=0;strokeColor=inherit;overflow=hidden;fillColor=none;top=0;left=0;bottom=0;right=0;pointerEvents=1;strokeWidth=0;fontFamily=Times New Roman;fontSize=18;fontColor=#00994D;" vertex="1" parent="3ebPB1JYwUErB06uRLUA-80">
          <mxGeometry x="60" width="60" height="50" as="geometry">
            <mxRectangle width="60" height="50" as="alternateBounds" />
          </mxGeometry>
        </mxCell>
        <mxCell id="3ebPB1JYwUErB06uRLUA-83" value="&lt;font style=&quot;font-size: 12px;&quot; color=&quot;#ff0000&quot;&gt;Local Transmission&lt;/font&gt;" style="shape=partialRectangle;html=1;whiteSpace=wrap;connectable=0;strokeColor=inherit;overflow=hidden;fillColor=none;top=0;left=0;bottom=0;right=0;pointerEvents=1;strokeWidth=0;fontFamily=Times New Roman;fontSize=18;fontColor=#00994D;" vertex="1" parent="3ebPB1JYwUErB06uRLUA-80">
          <mxGeometry x="120" width="80" height="50" as="geometry">
            <mxRectangle width="80" height="50" as="alternateBounds" />
          </mxGeometry>
        </mxCell>
        <mxCell id="3ebPB1JYwUErB06uRLUA-84" value="&lt;font style=&quot;font-size: 18px;&quot;&gt;Import&lt;/font&gt;" style="text;html=1;align=center;verticalAlign=middle;resizable=0;points=[];autosize=1;strokeColor=none;fillColor=none;fontSize=12;fontFamily=Times New Roman;fontColor=#FF0000;" vertex="1" parent="1">
          <mxGeometry x="120" y="470" width="70" height="30" as="geometry" />
        </mxCell>
        <mxCell id="3ebPB1JYwUErB06uRLUA-85" value="&lt;font style=&quot;font-size: 18px;&quot;&gt;Import&lt;/font&gt;" style="text;html=1;align=center;verticalAlign=middle;resizable=0;points=[];autosize=1;strokeColor=none;fillColor=none;fontSize=12;fontFamily=Times New Roman;fontColor=#FF0000;" vertex="1" parent="1">
          <mxGeometry x="195" y="390" width="70" height="30" as="geometry" />
        </mxCell>
        <mxCell id="3ebPB1JYwUErB06uRLUA-86" value="&lt;font style=&quot;font-size: 18px;&quot;&gt;Export&lt;/font&gt;" style="text;html=1;align=center;verticalAlign=middle;resizable=0;points=[];autosize=1;strokeColor=none;fillColor=none;fontSize=12;fontFamily=Times New Roman;fontColor=#FF0000;" vertex="1" parent="1">
          <mxGeometry x="265" y="350" width="70" height="30" as="geometry" />
        </mxCell>
        <mxCell id="3ebPB1JYwUErB06uRLUA-87" value="&lt;font style=&quot;font-size: 18px;&quot;&gt;Local Transmission&lt;/font&gt;" style="text;html=1;align=center;verticalAlign=middle;resizable=0;points=[];autosize=1;strokeColor=none;fillColor=none;fontSize=12;fontFamily=Times New Roman;fontColor=#FF0000;" vertex="1" parent="1">
          <mxGeometry x="240" y="430" width="170" height="30" as="geometry" />
        </mxCell>
      </root>
    </mxGraphModel>
  </diagram>
</mxfile>
